<svg width="36" height="36" viewBox="0 0 36 36" fill="none" xmlns="http://www.w3.org/2000/svg">
<path d="M34.5968 7.50738C33.2973 5.96264 30.8981 5.33252 26.3161 5.33252H9.68354C4.99668 5.33252 2.55681 6.00328 1.26221 7.6479C0 9.25141 0 11.6141 0 14.884V21.1165C0 27.4515 1.4976 30.6679 9.68354 30.6679H26.3162C30.2897 30.6679 32.4915 30.1119 33.9159 28.7487C35.3767 27.3507 36 25.0682 36 21.1165V14.884C36 11.4356 35.9023 9.05898 34.5968 7.50738ZM23.1121 18.8607L15.5593 22.8081C15.3905 22.8963 15.2058 22.9401 15.0214 22.9401C14.8126 22.9401 14.6043 22.8839 14.4197 22.7722C14.0723 22.5617 13.8601 22.185 13.8601 21.7788V13.9095C13.8601 13.5039 14.0717 13.1277 14.4185 12.917C14.7653 12.7064 15.1968 12.692 15.5566 12.8789L23.1094 16.8008C23.4937 17.0004 23.735 17.397 23.7356 17.8299C23.7361 18.263 23.4958 18.6603 23.1121 18.8607Z" fill="#FF0000"/>
</svg>
